<?xml version="1.0" encoding="UTF-8"?>
<svg width="32px" height="32px" viewBox="0 0 32 32" version="1.1" xmlns="http://www.w3.org/2000/svg" xmlns:xlink="http://www.w3.org/1999/xlink">
    <!-- Generator: Sketch 51.3 (57544) - http://www.bohemiancoding.com/sketch -->
    <title>icon-32</title>
    <desc>Created with Sketch.</desc>
    <defs>
        <path d="M0,0 L32,0 L32,30.2222222 L0,30.2222222 L0,0 Z M16,27.1070881 C21.1179706,27.1070881 25.2669056,22.9492115 25.2669056,17.8202107 C25.2669056,12.69121 21.1179706,8.53333333 16,8.53333333 C10.8820294,8.53333333 6.73309438,12.69121 6.73309438,17.8202107 C6.73309438,22.9492115 10.8820294,27.1070881 16,27.1070881 Z" id="path-1"></path>
    </defs>
    <g id="Page-1" stroke="none" stroke-width="1" fill="none" fill-rule="evenodd">
        <g id="action-icons" transform="translate(-108.000000, -92.000000)">
            <g id="Icon-Small" transform="translate(108.000000, 92.000000)">
                <g id="Group">
                    <mask id="mask-2" fill="white">
                        <use xlink:href="#path-1"></use>
                    </mask>
                    <g id="Mask"></g>
                    <g mask="url(#mask-2)" stroke="#338498" stroke-width="2.22222222">
                        <g transform="translate(1.777778, 1.777778)">
                            <ellipse id="Oval-2-Copy-12" cx="22.0215054" cy="20.2298851" rx="6.42293907" ry="6.43678161"></ellipse>
                            <ellipse id="Oval-2-Copy-13" cx="6.42293907" cy="20.2298851" rx="6.42293907" ry="6.43678161"></ellipse>
                            <ellipse id="Oval-2-Copy-14" cx="14.2222222" cy="6.43678161" rx="6.42293907" ry="6.43678161"></ellipse>
                        </g>
                    </g>
                </g>
                <g id="Group-2" transform="translate(8.888889, 10.666667)">
                    <ellipse id="Oval-3-Copy-5" stroke="#338498" stroke-width="2.22222222" cx="7.11111111" cy="6.74329502" rx="5.96415771" ry="5.97701149"></ellipse>
                    <ellipse id="Oval-3-Copy-5" fill="#338498" cx="7.11111111" cy="6.74329502" rx="2.29390681" ry="2.29885057"></ellipse>
                </g>
            </g>
        </g>
    </g>
</svg>