<?xml version="1.0" encoding="UTF-8"?>
<svg width="48px" height="48px" viewBox="0 0 48 48" version="1.1" xmlns="http://www.w3.org/2000/svg" xmlns:xlink="http://www.w3.org/1999/xlink">
    <!-- Generator: Sketch 51.3 (57544) - http://www.bohemiancoding.com/sketch -->
    <title>icon-48</title>
    <desc>Created with Sketch.</desc>
    <defs>
        <path d="M0,0 L48,0 L48,45.3333333 L0,45.3333333 L0,0 Z M24,40.6606322 C31.676956,40.6606322 37.9003584,34.4238172 37.9003584,26.7303161 C37.9003584,19.036815 31.676956,12.8 24,12.8 C16.323044,12.8 10.0996416,19.036815 10.0996416,26.7303161 C10.0996416,34.4238172 16.323044,40.6606322 24,40.6606322 Z" id="path-1"></path>
    </defs>
    <g id="Page-1" stroke="none" stroke-width="1" fill="none" fill-rule="evenodd">
        <g id="action-icons" transform="translate(-108.000000, -39.000000)">
            <g id="Icon-Small" transform="translate(108.000000, 39.000000)">
                <g id="Group">
                    <mask id="mask-2" fill="white">
                        <use xlink:href="#path-1"></use>
                    </mask>
                    <g id="Mask"></g>
                    <g mask="url(#mask-2)" stroke="#338498" stroke-width="3.33333333">
                        <g transform="translate(2.666667, 2.666667)">
                            <ellipse id="Oval-2-Copy-12" cx="33.0322581" cy="30.3448276" rx="9.6344086" ry="9.65517241"></ellipse>
                            <ellipse id="Oval-2-Copy-13" cx="9.6344086" cy="30.3448276" rx="9.6344086" ry="9.65517241"></ellipse>
                            <ellipse id="Oval-2-Copy-14" cx="21.3333333" cy="9.65517241" rx="9.6344086" ry="9.65517241"></ellipse>
                        </g>
                    </g>
                </g>
                <g id="Group-2" transform="translate(13.333333, 16.000000)">
                    <ellipse id="Oval-3-Copy-5" stroke="#338498" stroke-width="3.33333333" cx="10.6666667" cy="10.1149425" rx="8.94623656" ry="8.96551724"></ellipse>
                    <ellipse id="Oval-3-Copy-5" fill="#338498" cx="10.6666667" cy="10.1149425" rx="3.44086022" ry="3.44827586"></ellipse>
                </g>
            </g>
        </g>
    </g>
</svg>