<?xml version="1.0" encoding="UTF-8"?>
<svg width="96px" height="96px" viewBox="0 0 96 96" version="1.1" xmlns="http://www.w3.org/2000/svg" xmlns:xlink="http://www.w3.org/1999/xlink">
    <!-- Generator: Sketch 51.3 (57544) - http://www.bohemiancoding.com/sketch -->
    <title>icon-96</title>
    <desc>Created with Sketch.</desc>
    <defs>
        <path d="M0,0 L96,0 L96,89.6703297 L0,89.6703297 L0,0 Z M48,80.4276241 C63.3539119,80.4276241 75.8007168,68.091067 75.8007168,52.8731527 C75.8007168,37.6552384 63.3539119,25.3186813 48,25.3186813 C32.6460881,25.3186813 20.1992832,37.6552384 20.1992832,52.8731527 C20.1992832,68.091067 32.6460881,80.4276241 48,80.4276241 Z" id="path-1"></path>
    </defs>
    <g id="Page-1" stroke="none" stroke-width="1" fill="none" fill-rule="evenodd">
        <g id="action-icons" transform="translate(-164.000000, -39.000000)">
            <g id="Icon-Small" transform="translate(164.000000, 39.000000)">
                <g id="Group">
                    <mask id="mask-2" fill="white">
                        <use xlink:href="#path-1"></use>
                    </mask>
                    <g id="Mask"></g>
                    <g mask="url(#mask-2)" stroke="#338498" stroke-width="6.66666667">
                        <g transform="translate(5.333333, 5.274725)">
                            <ellipse id="Oval-2-Copy-12" cx="66.0645161" cy="60.0227359" rx="19.2688172" ry="19.0981432"></ellipse>
                            <ellipse id="Oval-2-Copy-13" cx="19.2688172" cy="60.0227359" rx="19.2688172" ry="19.0981432"></ellipse>
                            <ellipse id="Oval-2-Copy-14" cx="42.6666667" cy="19.0981432" rx="19.2688172" ry="19.0981432"></ellipse>
                        </g>
                    </g>
                </g>
                <g id="Group-2" transform="translate(26.666667, 31.648352)">
                    <ellipse id="Oval-3-Copy-5" stroke="#338498" stroke-width="6.66666667" cx="21.3333333" cy="20.0075786" rx="17.8924731" ry="17.7339901"></ellipse>
                    <ellipse id="Oval-3-Copy-5" fill="#338498" cx="21.3333333" cy="20.0075786" rx="6.88172043" ry="6.82076544"></ellipse>
                </g>
            </g>
        </g>
    </g>
</svg>