<?xml version="1.0" encoding="UTF-8"?>
<svg width="16px" height="16px" viewBox="0 0 16 16" version="1.1" xmlns="http://www.w3.org/2000/svg" xmlns:xlink="http://www.w3.org/1999/xlink">
    <!-- Generator: Sketch 51.3 (57544) - http://www.bohemiancoding.com/sketch -->
    <title>icon-16</title>
    <desc>Created with Sketch.</desc>
    <defs>
        <path d="M0,0 L16,0 L16,15.1111111 L0,15.1111111 L0,0 Z M8,13.5535441 C10.5589853,13.5535441 12.6334528,11.4746057 12.6334528,8.91010536 C12.6334528,6.34560498 10.5589853,4.26666667 8,4.26666667 C5.44101468,4.26666667 3.36654719,6.34560498 3.36654719,8.91010536 C3.36654719,11.4746057 5.44101468,13.5535441 8,13.5535441 Z" id="path-1"></path>
    </defs>
    <g id="Page-1" stroke="none" stroke-width="1" fill="none" fill-rule="evenodd">
        <g id="action-icons" transform="translate(-108.000000, -131.000000)">
            <g id="Icon-Small" transform="translate(108.000000, 131.000000)">
                <g id="Group">
                    <mask id="mask-2" fill="white">
                        <use xlink:href="#path-1"></use>
                    </mask>
                    <g id="Mask"></g>
                    <g mask="url(#mask-2)" stroke="#338498" stroke-width="1.11111111">
                        <g transform="translate(0.888889, 0.888889)">
                            <ellipse id="Oval-2-Copy-12" cx="11.0107527" cy="10.1149425" rx="3.21146953" ry="3.2183908"></ellipse>
                            <ellipse id="Oval-2-Copy-13" cx="3.21146953" cy="10.1149425" rx="3.21146953" ry="3.2183908"></ellipse>
                            <ellipse id="Oval-2-Copy-14" cx="7.11111111" cy="3.2183908" rx="3.21146953" ry="3.2183908"></ellipse>
                        </g>
                    </g>
                </g>
                <g id="Group-2" transform="translate(4.444444, 5.333333)">
                    <ellipse id="Oval-3-Copy-5" stroke="#338498" stroke-width="1.11111111" cx="3.55555556" cy="3.37164751" rx="2.98207885" ry="2.98850575"></ellipse>
                    <ellipse id="Oval-3-Copy-5" fill="#338498" cx="3.55555556" cy="3.37164751" rx="1.14695341" ry="1.14942529"></ellipse>
                </g>
            </g>
        </g>
    </g>
</svg>